<?xml version="1.0"?>
<svg version="1.1" xmlns="http://www.w3.org/2000/svg" width="400" height="200" ><path fill="#0b5cff" d="M23.74,136.86l0-35.72l-5.7-2.28l0-6.46l17.48-0.38l7.22,0c15.2,0,24.168,8.968,24.168,26.068s-9.88,27.512-25.308,27.512l-23.56,0l0-6.46z M35.52,136.48l6.308,0c7.372,0,12.312-4.332,12.312-18.012c0-12.768-4.332-17.328-11.78-17.328l-6.84,0l0,35.34z M77.13076,111.02l0-6.08l17.48-0.38l0,26.22c0,4.18,1.216,6.08,4.636,6.08c4.94,0,8.588-4.104,8.588-4.104l0-19.836l-6.08-1.9l0-6.08l17.48-0.38l0,33.06l6.08,1.52l0,5.928l-16.036,0.532l-0.76-5.32s-6.08,6.08-13.3,6.08c-7.6,0-12.008-5.092-12.008-13.604l0-19.836z M155.29752,103.8c12.312,0,19.152,7.448,19.152,20.52c0,13.68-7.98,22.04-20.292,22.04c-12.388,0-19.38-6.46-19.38-20.9c0-13.68,8.132-21.66,20.52-21.66z M154.91752,112.92c-5.548,0-8.36,3.04-8.36,12.16c0,8.36,2.432,12.16,7.98,12.16c5.472,0,8.132-3.42,8.132-12.54c0-7.752-2.28-11.78-7.752-11.78z M185.05228,145.6l0-6.46l5.7-2.28l0-35.72l-5.7-2.28l0-6.46l19.608-0.38l11.4,25.308l11.932-24.928l18.24-0.38l0,6.84l-5.472,2.28l0,35.72l5.7,2.28l0,6.46l-22.648,0l0-6.46l5.928-2.28l0-28.576l-2.052,5.016l-8.588,17.86l-8.208,0.38l-8.74-18.012l-1.292-3.952l0,27.284l5.852,2.28l0,6.46l-21.66,0z M294.15104,127.588l-25.232,0c0.456,6.08,3.952,9.652,9.196,9.652c6.308,0,12.768-3.572,12.768-3.572l3.268,6.308s-7.6,6.384-17.328,6.384c-13.072,0-19.76-7.6-19.76-20.52c0-13.3,7.524-22.04,20.292-22.04c11.324,0,17.252,6.992,17.252,17.86c0,2.888-0.456,5.7-0.456,5.928z M269.07104,120.52l13.756,0c0-4.332-1.824-7.6-6.232-7.6c-4.256,0-6.916,3.116-7.524,7.6z M342.2978,127.588l-25.232,0c0.456,6.08,3.952,9.652,9.196,9.652c6.308,0,12.768-3.572,12.768-3.572l3.268,6.308s-7.6,6.384-17.328,6.384c-13.072,0-19.76-7.6-19.76-20.52c0-13.3,7.524-22.04,20.292-22.04c11.324,0,17.252,6.992,17.252,17.86c0,2.888-0.456,5.7-0.456,5.928z M317.2178,120.52l13.756,0c0-4.332-1.824-7.6-6.232-7.6c-4.256,0-6.916,3.116-7.524,7.6z M380.33656,135.872l2.736,5.776c-3.724,2.736-7.98,4.712-12.92,4.712c-8.74,0-11.248-6.08-11.248-14.82l0-17.48l-7.068,0l0-7.372l7.068-0.988l0-10.488l11.4-2.052l0,12.54l10.64,0l0,8.36l-10.64,0l0,16.72c0,4.864,0.836,6.84,4.028,6.84c2.052,0,5.016-1.216,6.004-1.748z"/><path fill="#" d=""/></svg>
